<?xml version="1.0" encoding="utf-8"?>
<!-- Generator: Adobe Illustrator 17.0.0, SVG Export Plug-In . SVG Version: 6.00 Build 0)  -->
<!DOCTYPE svg PUBLIC "-//W3C//DTD SVG 1.1//EN" "http://www.w3.org/Graphics/SVG/1.1/DTD/svg11.dtd">
<svg version="1.1" id="Layer_1" xmlns="http://www.w3.org/2000/svg" xmlns:xlink="http://www.w3.org/1999/xlink" x="0px" y="0px"
	 width="545.195px" height="560px" viewBox="0 0 545.195 560" enable-background="new 0 0 545.195 560" xml:space="preserve">
<g>
	<g>
		<g>
			<path d="M540.103,557.307c-1.25-0.06-2.448-0.094-3.609-0.126c-0.52-0.015-1.214-0.029-2.006-0.046
				c-3.052-0.063-7.231-0.149-9.067-0.383c-2.052-0.261-3.835-0.376-5.779-0.376c-1.261,0-2.52,0.045-3.978,0.099
				c-1.978,0.071-4.218,0.152-7.247,0.152c-4.015,0-8.164,0.078-11.826,0.147c-3.888,0.072-7.907,0.147-11.956,0.147
				c-0.813,0-1.625-0.003-2.435-0.01c-4.729-0.041-9.517-0.33-14.146-0.609c-0.729-0.044-1.381-0.061-2.035-0.061
				c-1.712,0-3.49,0.114-5.21,0.226c-1.761,0.113-3.583,0.23-5.381,0.23l-0.609-0.005c-3.751-0.057-7.083-0.084-10.186-0.084
				c-7.431,0-13.964,0.163-19.972,0.497c-0.955,0.054-1.938,0.08-3.004,0.08c-2.578,0-5.189-0.157-7.714-0.31
				c-2.477-0.148-5.037-0.303-7.515-0.303c-1.387,0-2.64,0.047-3.832,0.144c-1.885,0.151-3.908,0.226-6.186,0.226
				c-2.821,0-5.703-0.114-8.49-0.225c-2.786-0.11-5.668-0.225-8.488-0.225c-1.355,0-2.594,0.025-3.787,0.078
				c-4.896,0.216-9.894,0.32-15.276,0.32c-6.84,0-13.229-0.168-19.407-0.33c-5.661-0.149-11.009-0.29-16.257-0.29
				c-2.283,0-4.564-0.01-6.848-0.029c-2.058-0.018-4.122-0.024-6.187-0.024c-4.525,0-9.063,0.034-13.597,0.068
				c-4.528,0.034-9.052,0.068-13.554,0.068c-6.046,0-11.028-0.062-15.678-0.194c-10.331-0.297-21.014-0.604-31.574-0.816
				c-0.19-0.004-0.381-0.006-0.571-0.006c-1.882,0-3.819,0.184-5.693,0.361c-1.92,0.183-3.905,0.371-5.882,0.371
				c-0.219,0-0.438-0.002-0.657-0.007c-3.332-0.072-6.852-0.107-10.759-0.107c-6.414,0-12.998,0.097-19.365,0.19
				c-6.395,0.094-13.006,0.191-19.474,0.191c-3.573,0-7.146,0.018-10.718,0.055c-1.507,0.016-3.02,0.021-4.532,0.021
				c-2.079,0-4.162-0.011-6.245-0.021c-2.079-0.011-4.157-0.022-6.231-0.022c-4.105,0-9.496,0.039-14.788,0.337
				c-2.754,0.156-5.814,0.229-9.627,0.229c-1.885,0-3.777-0.016-5.67-0.032c-1.892-0.017-3.786-0.033-5.677-0.033
				c-2.031,0-3.808,0.02-5.433,0.061c-0.412,0.01-0.826,0.015-1.241,0.015c-2.595,0-5.205-0.185-7.968-0.38
				c-2.903-0.205-5.904-0.417-9.038-0.417c-4.766,0-9.649,0.168-14.373,0.331c-4.702,0.162-9.563,0.33-14.285,0.33
				c-1.018,0-2.032-0.008-3.043-0.024l-0.992-0.017c-4.161-0.071-8.333-0.404-12.368-0.726c-0.639-0.051-1.31-0.075-2.05-0.075
				c-1.418,0-2.892,0.093-4.317,0.184c-1.464,0.093-2.978,0.188-4.477,0.188c-0.25,0-0.501-0.002-0.751-0.008
				c-1.745-0.041-3.742-0.173-5.856-0.312c-2.826-0.186-5.747-0.377-8.397-0.377c-0.689,0-1.358,0.013-2,0.043
				c-2.382,0.111-4.785,0.224-7.302,0.31l-1.346,0.045l-0.187-1.333c-0.073-0.512-0.162-1.051-0.254-1.605
				c-0.224-1.346-0.455-2.736-0.534-4.2c-1.052-19.501-0.906-42.057,0.411-63.511c0,0,0.296-4.82,0.436-7.159
				c0.258-4.32-0.193-8.793-0.63-13.119c-0.366-3.621-0.744-7.365-0.706-11.014l0.002-0.24c0.027-2.521,0.054-5.041,0.093-7.562
				l0.031-1.992c0.21-13.413,0.426-27.246,0.475-40.847c0.019-5.108,0.078-10.221,0.138-15.333l0.002-0.202
				c0.163-13.82,0.331-28.11-0.35-42.108c-1.15-23.689-0.84-47.903-0.541-71.321c0.166-12.936,0.336-26.311,0.251-39.268
				l-0.063-9.495c-0.054-7.895,0.004-15.918,0.061-23.677c0.062-8.579,0.127-17.397,0.041-26.061
				c-0.09-9.07-0.316-18.298-0.535-27.222l-0.004-0.156c-0.222-8.993-0.451-18.292-0.542-27.472
				c-0.097-9.772-0.086-19.646-0.075-29.193c0.006-5.525,0.213-11.233,0.414-16.753c0.25-6.882,0.509-14,0.388-20.94
				c-0.054-3.127-0.041-6.592-0.027-10.261c0.025-6.655,0.051-13.536-0.327-19.099c-0.144-2.12-0.024-5.335,0.091-8.445
				c0.108-2.903,0.22-5.905,0.108-7.865c-0.043-0.77-0.034-1.514-0.023-2.375C4.294,5.729,4.3,5.277,4.3,4.781V3.285h1.497
				c0.492,0,0.954-0.007,1.394-0.014c0.444-0.006,0.833-0.012,1.211-0.012c0.519,0,1.02,0.011,1.519,0.045
				c0.811,0.057,1.609,0.171,2.381,0.281c1.042,0.149,2.011,0.287,2.933,0.287c0.229,0,0.458-0.008,0.687-0.028
				c3.032-0.257,6.168-0.382,9.589-0.382c2.216,0,4.484-0.05,6.677-0.098c2.2-0.048,4.475-0.098,6.704-0.098
				c2.79,0,5.101,0.076,7.271,0.24c1.38,0.104,2.76,0.208,4.141,0.308c1.108,0.08,2.243,0.119,3.469,0.119
				c3.45,0,7.004-0.319,10.442-0.627l2.378-0.209c7.469-0.636,15.491-0.945,24.523-0.945c10.837,0,21.837,0.446,32.476,0.877
				c10.47,0.425,21.297,0.864,31.794,0.864c1.135,0,2.267-0.005,3.399-0.016c6.659-0.062,13.26-0.124,19.86-0.209
				c6.492-0.083,13.482-0.123,21.997-0.123c4.162,0,8.273,0.009,12.337,0.018c3.973,0.008,7.902,0.017,11.792,0.017
				c8.34,0,18.207-0.033,28.144-0.275c0.591-0.015,1.184-0.021,1.777-0.021c2.017,0,4.065,0.074,6.045,0.145
				c1.951,0.07,3.969,0.143,5.927,0.143c1.3,0,2.464-0.031,3.56-0.096c0.931-0.055,1.908-0.082,2.988-0.082
				c1.852,0,3.742,0.081,5.57,0.159c1.821,0.078,3.704,0.158,5.541,0.158c0.564,0,1.127-0.008,1.69-0.025
				c11.825-0.361,24.154-0.543,36.645-0.543l1.105,0c32.065,0.027,66.59,0.092,101.785,0.381c4.912,0.041,9.844,0.361,14.612,0.67
				c0.822,0.053,1.684,0.079,2.632,0.079c1.861,0,3.786-0.103,5.647-0.203c1.896-0.101,3.857-0.206,5.789-0.206l0.415,0.001
				c1.437,0.011,2.879,0.017,4.322,0.017c7.143,0,14.295-0.124,21.211-0.243c5.849-0.101,17.795-0.204,23.785-0.234
				c1.153-0.006,2.32-0.008,3.495-0.008c7.521,0,15.311,0.106,23.295,0.225l5.188,0.076c0.996,0.014,1.976,0.217,3.013,0.431
				c0.529,0.109,1.102,0.228,1.749,0.339l1.242,0.213v1.261c0,1.377,0.068,2.815,0.129,4.084c0.144,3.044,0.292,6.191-0.297,9.217
				c-0.977,5.026-0.466,10.646,0.028,16.08c0.17,1.874,0.331,3.645,0.431,5.376c0.07,1.222,0.141,2.443,0.201,3.665
				c0.088,1.764-0.096,3.747-0.273,5.665c-0.208,2.248-0.424,4.571-0.194,6.479c0.312,2.61,0.248,5.286,0.186,7.875
				c-0.039,1.601-0.079,3.257-0.027,4.866c0.309,9.758,0.261,20.494-0.151,33.786c-0.105,3.426,0.017,6.937,0.135,10.331
				c0.172,4.927,0.349,10.021-0.168,14.958c-1.029,9.859-0.604,20.212-0.193,30.224c0.064,1.589,0.13,3.177,0.189,4.764
				c0.656,17.442,0.59,34.656,0.526,51.302c-0.025,6.766-0.05,13.157-0.029,19.601c0.017,5.064,0.091,9.661,0.162,14.107
				c0.191,11.877,0.372,23.096-0.678,39.429c-0.424,6.59-0.503,29.431,0.255,47.48c0.084,2.005-0.098,4.009-0.273,5.947
				c-0.164,1.804-0.334,3.67-0.274,5.473c0.264,8.188,0.243,14.269,0.224,20.149c-0.022,6.753-0.044,13.132,0.35,22.22
				l-0.406,21.638c0.088,2.025-0.053,4.131-0.188,6.168c-0.145,2.16-0.28,4.2-0.169,6.23c0.291,5.262,0.593,10.704,0.778,16.083
				c0.126,3.616-0.047,7.297-0.214,10.855c-0.149,3.201-0.305,6.511-0.233,9.689c0.119,5.327,0.254,11.365,0.434,17.147
				c0.293,9.481-0.033,17.32-0.35,24.902c-0.326,7.813-0.634,15.193-0.295,24.068l0.087,2.437
				c0.129,3.753,0.347,10.035,0.552,12.321c0.09,1.01-0.087,2.95-0.274,5.004c-0.16,1.754-0.325,3.567-0.27,4.358
				c0.078,1.104,0.053,3.279,0.038,4.163c-0.01,0.585-0.019,1.135-0.019,1.727v1.568L540.103,557.307z M519.681,553.386
				c2.063,0,3.949,0.122,6.115,0.396c1.693,0.215,5.953,0.303,8.772,0.361c0.795,0.017,2.172,0.05,2.172,0.05
				c0.638,0.019,1.288,0.037,1.951,0.061c0.002-0.074,0.003-0.146,0.004-0.22c0.011-0.661,0.04-2.9-0.031-3.902
				c-0.066-0.949,0.099-2.757,0.274-4.67c0.163-1.785,0.349-3.809,0.274-4.635c-0.212-2.356-0.423-8.457-0.562-12.493l-0.086-2.417
				c-0.342-8.956-0.032-16.375,0.295-24.229c0.314-7.548,0.64-15.353,0.349-24.764c-0.178-5.694-0.307-11.481-0.433-17.079
				c-0.075-3.343,0.082-6.688,0.234-9.924c0.164-3.515,0.335-7.148,0.213-10.678c-0.183-5.252-0.477-10.597-0.761-15.766
				l-0.014-0.259c-0.12-2.152,0.026-4.353,0.168-6.479c0.133-1.984,0.27-4.036,0.185-6.016l0.407-21.637
				c-0.395-9.068-0.373-15.467-0.351-22.241c0.02-5.869,0.039-11.938-0.226-20.098c-0.07-2.193,0.104-4.396,0.271-6.525
				c0.128-1.617,0.26-3.29,0.279-4.921c0.11-9.112-0.055-19.189-0.2-28.08c-0.144-8.745-0.268-16.297-0.051-19.664
				c1.043-16.211,0.862-27.364,0.672-39.172c-0.072-4.46-0.146-9.072-0.162-14.162c-0.021-6.46,0.005-13.162,0.029-19.643
				c0.063-16.605,0.129-33.777-0.524-51.156c-0.06-1.565-0.123-3.131-0.188-4.697c-0.415-10.154-0.845-20.654,0.207-30.715
				c0.499-4.787,0.323-9.798,0.153-14.644c-0.12-3.416-0.244-6.949-0.137-10.426c0.409-13.26,0.457-23.936,0.149-33.598
				c-0.052-1.648-0.01-3.319,0.03-4.936c0.062-2.502,0.127-5.089-0.168-7.543c-0.255-2.128-0.03-4.57,0.187-6.931
				c0.178-1.945,0.347-3.783,0.266-5.421c-0.062-1.213-0.13-2.427-0.2-3.642c-0.098-1.701-0.257-3.456-0.425-5.314
				c-0.509-5.641-1.036-11.473,0.015-16.883c0.521-2.677,0.387-5.508,0.245-8.505c-0.046-0.981-0.093-1.979-0.116-2.981
				c-0.197-0.04-0.388-0.079-0.573-0.117c-1.017-0.21-1.783-0.369-2.495-0.379l-5.19-0.076c-7.608-0.114-15.673-0.225-23.268-0.225
				c-1.164,0-2.318,0.003-3.462,0.008c-6.036,0.031-17.991,0.135-23.748,0.235c-6.905,0.119-14.046,0.243-21.219,0.243
				c-1.467,0-2.93-0.005-4.391-0.017l-0.402-0.001c-1.888,0-3.828,0.103-5.705,0.203c-1.892,0.101-3.847,0.205-5.763,0.205
				c-1,0-1.91-0.027-2.782-0.084c-4.747-0.307-9.646-0.625-14.443-0.664c-35.133-0.289-69.672-0.354-101.763-0.382l-1.104,0
				c-12.45,0-24.748,0.183-36.553,0.543c-0.578,0.018-1.157,0.025-1.736,0.025c-1.879,0-3.783-0.082-5.625-0.161
				c-1.808-0.078-3.677-0.158-5.488-0.158c-1.035,0-1.969,0.025-2.855,0.078c-1.14,0.067-2.349,0.1-3.695,0.1
				c-1.992,0-4.027-0.073-5.995-0.143c-1.963-0.07-3.994-0.143-5.977-0.143c-0.583,0-1.164,0.006-1.745,0.02
				C243.029,6.54,233.15,6.573,224.8,6.573c-3.898,0-7.836-0.008-11.819-0.017c-4.071-0.009-8.188-0.018-12.357-0.018
				c-8.493,0-15.465,0.039-21.942,0.122c-6.622,0.085-13.244,0.147-19.866,0.209c-1.138,0.011-2.277,0.016-3.415,0.016
				c-10.537,0-21.384-0.44-31.874-0.866c-10.614-0.431-21.589-0.877-32.379-0.877c-8.957,0-16.906,0.306-24.303,0.936l-2.364,0.208
				c-3.508,0.314-7.13,0.639-10.71,0.639c-1.311,0-2.516-0.042-3.686-0.126c-1.184-0.085-4.149-0.309-4.149-0.309
				c-2.106-0.159-4.353-0.233-7.071-0.233c-2.207,0-4.468,0.05-6.655,0.099c-2.198,0.048-4.471,0.099-6.7,0.099
				c-3.333,0-6.387,0.122-9.336,0.371c-0.306,0.025-0.613,0.037-0.92,0.037c-1.165,0-2.336-0.167-3.371-0.315
				c-0.741-0.105-1.476-0.21-2.17-0.258C9.283,6.259,8.852,6.25,8.405,6.25c-0.358,0-0.727,0.006-1.11,0.012H7.28
				C7.269,7.101,7.262,7.77,7.299,8.419c0.117,2.05,0.003,5.098-0.107,8.045c-0.114,3.057-0.232,6.217-0.095,8.23
				C7.48,30.338,7.455,37.267,7.43,43.968c-0.014,3.664-0.026,7.124,0.028,10.238c0.121,7-0.139,14.148-0.39,21.061
				c-0.2,5.504-0.407,11.196-0.413,16.688c-0.011,9.543-0.022,19.411,0.075,29.161c0.09,9.089,0.316,18.335,0.536,27.277
				l0.003,0.151c0.221,8.979,0.45,18.264,0.541,27.421c0.087,8.689,0.022,17.52-0.04,26.06c-0.057,7.81-0.116,15.817-0.062,23.688
				l0.063,9.496c0.085,12.975-0.086,26.36-0.251,39.304c-0.299,23.375-0.608,47.547,0.538,71.159
				c0.683,14.068,0.516,28.392,0.354,42.243l-0.002,0.196c-0.06,5.121-0.12,10.243-0.138,15.361
				c-0.049,13.612-0.265,27.447-0.474,40.826l-0.032,2.048c-0.039,2.424-0.064,4.849-0.09,7.272l-0.005,0.515
				c-0.037,3.54,0.335,7.232,0.695,10.804c0.445,4.415,0.905,8.979,0.636,13.476l-0.436,7.164
				c-1.311,21.342-1.456,43.773-0.41,63.165c0.07,1.3,0.287,2.606,0.497,3.87c0.02,0.116,0.039,0.232,0.058,0.347
				c1.994-0.075,3.918-0.165,5.792-0.253l0.148-0.007c0.67-0.031,1.371-0.045,2.091-0.045c2.701,0,5.643,0.192,8.487,0.379
				c2.133,0.14,4.147,0.271,5.881,0.309c0.238,0.006,0.475,0.008,0.712,0.008c1.443,0,2.931-0.093,4.369-0.184
				c1.458-0.092,2.965-0.187,4.448-0.187c0.805,0,1.537,0.027,2.237,0.083c3.998,0.318,8.131,0.647,12.179,0.715l0.991,0.017
				c1.003,0.017,2.011,0.024,3.021,0.024c4.685,0,9.525-0.167,14.206-0.328c4.735-0.164,9.631-0.333,14.425-0.333
				c3.2,0,6.234,0.215,9.167,0.422c2.723,0.193,5.295,0.375,7.815,0.375c0.398,0,0.794-0.005,1.189-0.015
				c1.629-0.04,3.407-0.06,5.437-0.06c1.904,0,3.811,0.017,5.716,0.033c1.896,0.017,3.789,0.033,5.677,0.033
				c3.76,0,6.774-0.071,9.485-0.224c5.357-0.304,10.809-0.342,14.96-0.342c2.067,0,4.138,0.011,6.209,0.021
				c2.068,0.011,4.137,0.021,6.203,0.021c1.522,0,3.043-0.006,4.561-0.021c3.583-0.036,7.165-0.054,10.749-0.054
				c6.453,0,13.058-0.097,19.445-0.19c6.374-0.094,12.964-0.191,19.39-0.191c3.932,0,7.474,0.036,10.829,0.108
				c0,0,9.156,0.197,12.797,0.271c1.452,0.029,2.908,0.042,4.366,0.042c3.583,0,7.238-0.075,10.773-0.147
				c3.519-0.071,7.157-0.146,10.707-0.146c2.082,0,3.964,0.025,5.753,0.076c4.629,0.133,9.591,0.194,15.615,0.194
				c4.499,0,9.018-0.034,13.542-0.068c4.538-0.034,9.079-0.068,13.608-0.068c2.066,0,4.13,0.007,6.189,0.024
				c2.274,0.019,4.548,0.028,6.822,0.028c5.271,0,10.63,0.142,16.304,0.291c6.165,0.162,12.541,0.33,19.354,0.33
				c5.34,0,10.297-0.104,15.152-0.317c1.218-0.054,2.479-0.079,3.858-0.079c2.857,0,5.758,0.115,8.562,0.226
				c2.768,0.11,5.629,0.224,8.411,0.224c2.217,0,4.184-0.071,6.011-0.219c1.247-0.101,2.555-0.149,3.998-0.149
				c2.539,0,5.131,0.156,7.639,0.307c2.498,0.149,5.081,0.305,7.603,0.305c1.031,0,1.979-0.025,2.899-0.076
				c6.065-0.339,12.652-0.504,20.138-0.504c3.135,0,6.481,0.028,10.232,0.085l0.573,0.004c1.743,0,3.539-0.114,5.276-0.226
				c1.754-0.112,3.568-0.228,5.349-0.228c0.7,0,1.396,0.018,2.091,0.06c4.6,0.278,9.355,0.566,14.07,0.607
				c0.832,0.008,1.665,0.011,2.5,0.011c3.752,0,7.55-0.069,11.223-0.137l0.588-0.011c3.877-0.073,7.887-0.148,11.881-0.148
				c2.993,0,5.223-0.079,7.19-0.149C517.094,553.432,518.377,553.386,519.681,553.386z"/>
		</g>
	</g>
</g>
</svg>
